<svg xmlns="http://www.w3.org/2000/svg" xmlns:xlink="http://www.w3.org/1999/xlink" version="1.2" baseProfile="tiny" x="0px" y="0px" viewBox="0 0 100 125" xml:space="preserve"><g><path d="M82.5,15h-25V7.5C57.5,6.119,56.381,5,55,5H45c-1.381,0-2.5,1.119-2.5,2.5V15h-6.25C24.533,15,15,24.533,15,36.25   S24.533,57.5,36.25,57.5h6.25V70h-25c-1.381,0-2.5,1.119-2.5,2.5v10c0,1.381,1.119,2.5,2.5,2.5h25v7.5c0,1.381,1.119,2.5,2.5,2.5   h10c1.381,0,2.5-1.119,2.5-2.5V85h6.25C75.467,85,85,75.467,85,63.75S75.467,42.5,63.75,42.5H57.5V30h25c1.381,0,2.5-1.119,2.5-2.5   v-10C85,16.119,83.881,15,82.5,15z M47.5,10h5v5h-5V10z M52.5,90h-5v-5h5V90z M63.75,47.5C72.71,47.5,80,54.79,80,63.75   S72.71,80,63.75,80H20v-5h43.75C69.953,75,75,69.953,75,63.75S69.953,52.5,63.75,52.5H57.5v-5H63.75z M42.5,42.5h-6.25   c-3.446,0-6.25-2.804-6.25-6.25S32.804,30,36.25,30h6.25V42.5z M47.5,70V30h5v40H47.5z M57.5,70V57.5h6.25   c3.446,0,6.25,2.804,6.25,6.25S67.196,70,63.75,70H57.5z M80,25H36.25C30.047,25,25,30.047,25,36.25S30.047,47.5,36.25,47.5h6.25v5   h-6.25C27.29,52.5,20,45.21,20,36.25S27.29,20,36.25,20H80V25z"/></g><text x="0" y="115" fill="#000000" font-size="5px" font-weight="bold" font-family="'Helvetica Neue', Helvetica, Arial-Unicode, Arial, Sans-serif">Created by Arthur Shlain</text><text x="0" y="120" fill="#000000" font-size="5px" font-weight="bold" font-family="'Helvetica Neue', Helvetica, Arial-Unicode, Arial, Sans-serif">from the Noun Project</text></svg>