<svg xmlns="http://www.w3.org/2000/svg" xmlns:xlink="http://www.w3.org/1999/xlink" version="1.1" x="0px" y="0px" viewBox="0 0 52 45" enable-background="new 0 0 52 36" xml:space="preserve"><g><circle fill="#000000" cx="29" cy="23" r="1"/><circle fill="#000000" cx="37" cy="23" r="1"/><circle fill="#000000" cx="45" cy="23" r="1"/><circle fill="#000000" cx="49" cy="23" r="1"/><circle fill="#000000" cx="41" cy="23" r="1"/><circle fill="#000000" cx="33" cy="23" r="1"/><circle fill="#000000" cx="31" cy="25" r="1"/><circle fill="#000000" cx="29" cy="27" r="1"/><circle fill="#000000" cx="35" cy="25" r="1"/><circle fill="#000000" cx="39" cy="25" r="1"/><circle fill="#000000" cx="37" cy="27" r="1"/><circle fill="#000000" cx="43" cy="25" r="1"/><circle fill="#000000" cx="47" cy="25" r="1"/><circle fill="#000000" cx="45" cy="27" r="1"/><circle fill="#000000" cx="49" cy="27" r="1"/><circle fill="#000000" cx="41" cy="27" r="1"/><circle fill="#000000" cx="33" cy="27" r="1"/><circle fill="#000000" cx="31" cy="29" r="1"/><circle fill="#000000" cx="35" cy="29" r="1"/><circle fill="#000000" cx="39" cy="29" r="1"/><circle fill="#000000" cx="37" cy="31" r="1"/><circle fill="#000000" cx="43" cy="29" r="1"/><circle fill="#000000" cx="47" cy="29" r="1"/><circle fill="#000000" cx="45" cy="31" r="1"/><circle fill="#000000" cx="41" cy="31" r="1"/><circle fill="#000000" cx="33" cy="31" r="1"/><circle fill="#000000" cx="35" cy="33" r="1"/><circle fill="#000000" cx="39" cy="33" r="1"/><circle fill="#000000" cx="43" cy="33" r="1"/><path fill="#000000" d="M52,19.99c0-0.12-0.03-0.23-0.07-0.34c-0.01-0.03-0.02-0.05-0.04-0.08c-0.02-0.03-0.03-0.07-0.05-0.1   L41.98,3.85C41.99,3.73,42,3.61,42,3.5c0-1.62-1.15-3.06-2.74-3.41c-0.03-0.01-0.07-0.01-0.1-0.02l-0.54-0.06   C38.58,0,38.54,0,38.5,0h-6c-0.03,0-0.07,0-0.1,0l-0.56,0.06C30.19,0.38,29,1.83,29,3.5C29,5.43,30.57,7,32.5,7h2.11l7.58,12H9.81   l7.58-12h2.11C21.43,7,23,5.43,23,3.5c0-1.67-1.19-3.12-2.93-3.45L19.6,0c-0.03,0-0.07,0-0.1,0h-6c-0.04,0-0.08,0-0.12,0.01   l-0.54,0.06c-0.03,0-0.07,0.01-0.1,0.02C11.15,0.44,10,1.88,10,3.5c0,0.11,0.01,0.23,0.02,0.35L0.15,19.47   c-0.02,0.03-0.03,0.07-0.05,0.11c-0.01,0.03-0.03,0.05-0.04,0.08C0.03,19.76,0,19.87,0,19.99c0,0,0,0.01,0,0.01l0,11   c0,0.55,0.45,1,1,1c1.65,0,3,1.35,3,3c0,0.55,0.45,1,1,1h15c0.26,0,0.5-0.1,0.69-0.27l4.59-4.35c0.02-0.02,0.05-0.05,0.07-0.08   c0.22-0.26,0.5-0.3,0.65-0.3s0.43,0.04,0.65,0.3c0.02,0.03,0.05,0.05,0.07,0.08l4.59,4.35C31.5,35.9,31.74,36,32,36h15   c0.27,0,0.52-0.11,0.71-0.29S48,35.26,48,35c0-0.8,0.31-1.55,0.88-2.12C49.45,32.31,50.2,32,51,32c0.55,0,1-0.45,1-1V20   C52,20,52,19.99,52,19.99z M36,5.47C35.82,5.18,35.5,5,35.16,5H32.5C31.67,5,31,4.33,31,3.5c0-0.72,0.51-1.33,1.13-1.46L38.44,2   l0.42,0.05C39.53,2.22,40,2.82,40,3.5c0,0.1-0.01,0.21-0.04,0.33c-0.06,0.26-0.01,0.53,0.13,0.76L49.19,19h-4.63L36,5.47z    M11.91,4.59c0.14-0.23,0.19-0.5,0.13-0.76C12.01,3.71,12,3.6,12,3.5c0-0.68,0.47-1.28,1.13-1.45L19.46,2l0.33,0.03   C20.49,2.17,21,2.78,21,3.5C21,4.33,20.33,5,19.5,5h-2.66C16.5,5,16.18,5.18,16,5.47L7.45,19H2.81L11.91,4.59z M19.6,34H5.9   c-0.4-1.96-1.94-3.5-3.9-3.9V21h6h17v8.22c-0.43,0.15-0.82,0.39-1.13,0.73L19.6,34z M50,23v4v3.1c-0.14,0.03-0.27,0.07-0.41,0.11   C49.42,30.09,49.23,30,49,30c-0.55,0-1,0.45-1,1c0,0,0,0,0,0c-0.19,0.14-0.37,0.29-0.54,0.46C47.3,31.63,47.14,31.81,47,32   c0,0,0,0,0,0c-0.55,0-1,0.45-1,1c0,0.23,0.09,0.42,0.21,0.59c-0.04,0.14-0.09,0.27-0.11,0.41H43h-4h-4h-2.6l-0.54-0.51   C31.94,33.34,32,33.18,32,33c0-0.55-0.45-1-1-1c-0.2,0-0.37,0.07-0.53,0.17l-0.66-0.62C29.92,31.39,30,31.21,30,31   c0-0.55-0.45-1-1-1c-0.23,0-0.43,0.09-0.59,0.22l-0.27-0.26c-0.11-0.13-0.24-0.23-0.37-0.33C27.9,29.45,28,29.24,28,29   c0-0.55-0.45-1-1-1v-2c0.55,0,1-0.45,1-1s-0.45-1-1-1v-2c0.55,0,1-0.45,1-1h2c0,0.55,0.45,1,1,1s1-0.45,1-1h2c0,0.55,0.45,1,1,1   s1-0.45,1-1h2c0,0.55,0.45,1,1,1s1-0.45,1-1h2c0,0.55,0.45,1,1,1s1-0.45,1-1h2c0,0.55,0.45,1,1,1s1-0.45,1-1h2V23z"/></g><text x="0" y="51" fill="#000000" font-size="5px" font-weight="bold" font-family="'Helvetica Neue', Helvetica, Arial-Unicode, Arial, Sans-serif">Created by Oliviu Stoian</text><text x="0" y="56" fill="#000000" font-size="5px" font-weight="bold" font-family="'Helvetica Neue', Helvetica, Arial-Unicode, Arial, Sans-serif">from the Noun Project</text></svg>